<svg width="32" height="32" viewBox="0 0 32 32" fill="none" xmlns="http://www.w3.org/2000/svg">
<path d="M10.7351 23.7713L11.6065 24.2371C12.9568 24.959 14.4648 25.3356 15.996 25.3333L16 25.3333C21.1548 25.3333 25.3333 21.1548 25.3333 16C25.3333 10.8452 21.1548 6.66667 16 6.66667C10.8452 6.66667 6.66668 10.8452 6.66668 16V16.004C6.66437 17.5352 7.04097 19.0432 7.76289 20.3935L8.22873 21.2649L7.51244 24.4876L10.7351 23.7713ZM4.00001 28L5.41121 21.6508C4.48185 19.9125 3.99705 17.9712 4.00001 16C4.00001 9.3724 9.37241 4 16 4C22.6276 4 28 9.3724 28 16C28 22.6276 22.6276 28 16 28C14.0288 28.003 12.0875 27.5181 10.3492 26.5888L4.00001 28Z" fill="#0F1828"/>
</svg>
