<svg width="32" height="32" viewBox="0 0 32 32" fill="none" xmlns="http://www.w3.org/2000/svg">
<path d="M24 18.6666C22.5273 18.6666 21.3334 17.4727 21.3334 16C21.3334 14.5272 22.5273 13.3333 24 13.3333C25.4728 13.3333 26.6667 14.5272 26.6667 16C26.6667 16.7072 26.3858 17.3855 25.8857 17.8856C25.3856 18.3857 24.7073 18.6666 24 18.6666ZM16 18.6666C14.5273 18.6666 13.3334 17.4727 13.3334 16C13.3334 14.5272 14.5273 13.3333 16 13.3333C17.4728 13.3333 18.6667 14.5272 18.6667 16C18.6667 16.7072 18.3858 17.3855 17.8857 17.8856C17.3856 18.3857 16.7073 18.6666 16 18.6666ZM8.00004 18.6666C6.52728 18.6666 5.33337 17.4727 5.33337 16C5.33337 14.5272 6.52728 13.3333 8.00004 13.3333C9.4728 13.3333 10.6667 14.5272 10.6667 16C10.6667 16.7072 10.3858 17.3855 9.88566 17.8856C9.38556 18.3857 8.70728 18.6666 8.00004 18.6666Z" fill="#0F1828"/>
</svg>
